<?xml version="1.0" encoding="UTF-8"?>
<svg width="270px" height="24px" viewBox="0 0 270 24" version="1.1" xmlns="http://www.w3.org/2000/svg" xmlns:xlink="http://www.w3.org/1999/xlink">
    <!-- Generator: Sketch 47.1 (45422) - http://www.bohemiancoding.com/sketch -->
    <title>Logo - Blue</title>
    <desc>Created with Sketch.</desc>
    <defs></defs>
    <g id="Page-1" stroke="none" stroke-width="1" fill="none" fill-rule="evenodd">
        <g id="Homepage---Hurricane" transform="translate(-748.000000, -57.000000)" fill="#FFFFFF">
            <g id="Navigation" transform="translate(748.000000, 56.000000)">
                <path d="M5.07505049,2.85123539 C4.87757455,3.37946322 4.77843025,4.19943535 4.77843025,5.31033912 L4.77843025,19.5749286 C4.77843025,20.6858324 4.87757455,21.5082425 5.07505049,22.0421589 C5.27333909,22.5760753 5.61303022,23.0555437 6.09493654,23.4781259 L0,23.4781259 C0.470529101,23.0555437 0.807782256,22.5760753 1.01094681,22.0421589 C1.21492402,21.5082425 1.31650629,20.6858324 1.31650629,19.5749286 L1.31650629,5.31033912 C1.31650629,4.19943535 1.21492402,3.37946322 1.01094681,2.85123539 C0.807782256,2.32300756 0.470529101,1.8516658 0,1.43883543 L6.09493654,1.43883543 C5.61303022,1.8516658 5.27333909,2.32300756 5.07505049,2.85123539 L5.07505049,2.85123539 Z M13.6640351,22.8044323 C12.9017617,22.3542197 12.0143389,21.3993463 10.9985161,19.9398121 L5.3237239,11.9099364 L10.4426579,5.02509609 C10.8018529,4.53831382 11.0667794,4.13117206 11.2358123,3.80367081 C11.4056579,3.47616955 11.490987,3.19986576 11.490987,2.97801007 C11.490987,2.73421261 11.4210984,2.48635186 11.2837592,2.2328025 C11.1472326,1.97925314 10.9400048,1.71432656 10.6653263,1.43883543 L16.1881514,1.43883543 L9.07820481,11.2923162 L15.5534654,20.4152172 C15.8062021,20.7849767 16.1662097,21.2205615 16.6359261,21.716283 C17.1056426,22.2144424 17.703759,22.8019943 18.4310881,23.4781259 L16.5822907,23.4781259 C15.3982477,23.4781259 14.4246831,23.2530196 13.6640351,22.8044323 L13.6640351,22.8044323 Z M24.0611841,22.0421589 C24.2586601,22.5760753 24.5983512,23.0555437 25.0802575,23.4781259 L18.985321,23.4781259 C19.4664146,23.0555437 19.8061058,22.5760753 20.005207,22.0421589 C20.202683,21.5082425 20.3018273,20.6858324 20.3018273,19.5749286 L20.3018273,5.31033912 C20.3018273,4.19943535 20.202683,3.37946322 20.005207,2.85123539 C19.8061058,2.32300756 19.4664146,1.8516658 18.985321,1.43883543 L25.0802575,1.43883543 C24.5983512,1.8516658 24.2586601,2.32300756 24.0611841,2.85123539 C23.8628955,3.37946322 23.7637512,4.19943535 23.7637512,5.31033912 L23.7637512,19.5749286 C23.7637512,20.6858324 23.8628955,21.5082425 24.0611841,22.0421589 L24.0611841,22.0421589 Z M45.2780645,23.4781259 C44.4719076,23.4781259 43.6860671,23.2668348 42.9221684,22.8434399 C42.157457,22.420045 41.5097685,21.837369 40.9799153,21.0970374 L34.4542699,12.0196453 C36.3957104,11.5881238 37.8146116,10.9956959 38.7117863,10.2423618 C39.6089609,9.48984027 40.0575482,8.51790105 40.0575482,7.32816944 C40.0575482,6.22214163 39.6707229,5.32171633 38.8970723,4.62770623 C38.1234217,3.9320708 37.1108496,3.58425309 35.859356,3.58425309 C35.5741129,3.58425309 35.2319838,3.60782018 34.8329686,3.65495436 C34.4323281,3.70208853 33.9804902,3.77360245 33.4750168,3.86787081 L33.4750168,19.5733033 C33.4750168,20.684207 33.5741611,21.5066171 33.7724497,22.0421589 C33.9707383,22.5760753 34.3104294,23.0555437 34.7915231,23.4781259 L28.6965865,23.4781259 C29.1671156,23.0555437 29.5043688,22.5760753 29.7075333,22.0421589 C29.9115106,21.5066171 30.0130928,20.684207 30.0130928,19.5733033 L30.0130928,5.32171633 C30.0130928,4.20756194 29.9115106,3.38596449 29.7075333,2.85611134 C29.5043688,2.32544553 29.1671156,1.85329112 28.6965865,1.43883543 L36.363204,1.43883543 C38.5330014,1.43883543 40.2842799,1.95731137 41.617852,2.99345058 C42.9506115,4.03040245 43.6169912,5.37860241 43.6169912,7.03805046 C43.6169912,8.24403524 43.215538,9.30617951 42.4126317,10.2269213 C41.6097254,11.1468503 40.3639204,11.9554453 38.674404,12.6535187 L44.399581,20.2876298 C44.7408975,20.7443437 45.1504772,21.2246247 45.6291329,21.7325361 C46.1077886,22.2404475 46.6563329,22.769488 47.2747658,23.3196576 L45.5494924,23.4781259 L45.2780645,23.4781259 Z M53.4379656,2.85123539 C53.2404896,3.37946322 53.1413453,4.19943535 53.1413453,5.31033912 L53.1413453,19.5749286 C53.1413453,20.6858324 53.2404896,21.5082425 53.4379656,22.0421589 C53.6362542,22.5760753 53.9759453,23.0555437 54.457039,23.4781259 L48.3629151,23.4781259 C48.8334442,23.0555437 49.1698847,22.5760753 49.3738619,22.0421589 C49.5770265,21.5082425 49.6794214,20.6858324 49.6794214,19.5749286 L49.6794214,5.31033912 C49.6794214,4.19943535 49.5770265,3.37946322 49.3738619,2.85123539 C49.1698847,2.32300756 48.8334442,1.8516658 48.3629151,1.43883543 L54.457039,1.43883543 C53.9759453,1.8516658 53.6362542,2.32300756 53.4379656,2.85123539 L53.4379656,2.85123539 Z M62.0269502,22.8044323 C61.2646768,22.3542197 60.3764413,21.3993463 59.3614312,19.9398121 L53.686639,11.9099364 L58.805573,5.02509609 C59.1655806,4.53831382 59.4288819,4.13117206 59.5987274,3.80367081 C59.7677603,3.47616955 59.8530895,3.19986576 59.8530895,2.97801007 C59.8530895,2.73421261 59.7832008,2.48635186 59.6466743,2.2328025 C59.509335,1.97925314 59.3029199,1.71432656 59.0274287,1.43883543 L64.5510665,1.43883543 L57.4411199,11.2923162 L63.9155678,20.4152172 C64.1691172,20.7849767 64.5299374,21.2205615 64.9980286,21.716283 C65.467745,22.2144424 66.0658614,22.8019943 66.7931905,23.4781259 L64.9452058,23.4781259 C63.7603501,23.4781259 62.7875982,23.2530196 62.0269502,22.8044323 L62.0269502,22.8044323 Z M67.2507171,23.4781259 C67.7212462,23.0522931 68.0576867,22.5720121 68.2616639,22.0340323 C68.4648285,21.4976779 68.5672234,20.6703919 68.5672234,19.5537995 L68.5672234,5.30546317 C68.5672234,4.19618472 68.4648285,3.37702525 68.2616639,2.84961007 C68.0576867,2.32056958 67.7212462,1.85085314 67.2507171,1.43883543 L73.344841,1.43883543 C72.86456,1.85085314 72.5248688,2.32056958 72.3257676,2.84961007 C72.1282916,3.37702525 72.0291473,4.19618472 72.0291473,5.30546317 L72.0291473,20.6086298 C72.8832511,20.7362172 73.6479625,20.8312982 74.3224688,20.8954982 C74.9977878,20.9596982 75.5837143,20.9913918 76.0794358,20.9913918 C77.187089,20.9913918 78.2411067,20.8402374 79.2439269,20.5371159 C80.2459345,20.2339944 81.221937,19.7667159 82.1711217,19.1385311 L80.639261,23.4781259 L67.2507171,23.4781259 Z M92.0676734,4.49361762 L88.6951418,12.9948351 L95.1874682,12.9948351 L92.0676734,4.49361762 Z M97.4994808,23.3976728 C98.0829694,22.7808652 98.3747137,22.3306526 98.3747137,22.0437842 C98.3747137,21.7032804 98.2463137,21.2034956 97.9919517,20.5444298 C97.960258,20.4395969 97.9342529,20.3583311 97.9131238,20.3055083 L96.0261315,15.1890123 L87.8247849,15.1890123 L85.7118735,20.4810425 C85.6151672,20.7045235 85.5436533,20.9345058 85.4957065,21.1742399 C85.446947,21.4131615 85.4241925,21.6610222 85.4241925,21.9153842 C85.4241925,22.1291133 85.5005824,22.3631589 85.6558001,22.6167083 C85.8102052,22.8726956 86.0580659,23.1587513 86.3993824,23.4781259 L81.1821167,23.4781259 C81.6177015,23.180693 82.0077774,22.771926 82.3515319,22.2510121 C82.6952863,21.7300982 83.0479799,21.0173969 83.4096128,20.1145336 L89.6134456,4.39934927 C89.7402203,4.10354168 89.8353013,3.81342271 89.897876,3.52817968 C89.9612633,3.2437493 89.9937696,2.99019994 89.9937696,2.76834425 C89.9937696,2.51642021 89.9320076,2.28399996 89.8109215,2.07270883 C89.6890228,1.8614177 89.4915468,1.65012656 89.217681,1.43883543 L94.2204049,1.43883543 L101.240959,19.8910526 C101.570898,20.7313412 101.923592,21.4147868 102.300665,21.939764 C102.676926,22.4663665 103.162896,22.9791538 103.757762,23.4781259 L97.4198403,23.4781259 L97.4994808,23.3976728 Z M124.424472,2.85123539 C124.226997,3.37946322 124.127852,4.19943535 124.127852,5.31033912 L124.127852,23.9649082 C123.354202,23.9445918 122.620371,23.696731 121.926361,23.2245766 C121.232351,22.7507969 120.360369,21.8519969 119.31204,20.5265513 L107.939701,6.18313403 L107.939701,19.5749286 C107.939701,20.7289032 108.033969,21.5635032 108.224131,22.0819792 C108.415106,22.6004551 108.742607,23.0661082 109.207448,23.4781259 L104.18522,23.4781259 C104.655749,23.0555437 104.993002,22.5760753 105.196167,22.0421589 C105.400144,21.5082425 105.501726,20.6858324 105.501726,19.5749286 L105.501726,5.31033912 C105.501726,4.19943535 105.400144,3.37946322 105.196167,2.85123539 C104.993002,2.32300756 104.655749,1.8516658 104.18522,1.43883543 L108.668655,1.43883543 L121.738637,17.9878071 L121.738637,5.31033912 C121.738637,4.19943535 121.636242,3.37946322 121.433078,2.85123539 C121.229913,2.32300756 120.893473,1.8516658 120.422131,1.43883543 L125.444358,1.43883543 C124.962452,1.8516658 124.622761,2.32300756 124.424472,2.85123539 L124.424472,2.85123539 Z M143.233447,6.14981505 C141.643074,4.56919484 139.5261,3.77929106 136.885773,3.77929106 C136.344543,3.77929106 135.792748,3.81667334 135.230389,3.89062524 C134.667216,3.96457713 134.101606,4.0799746 133.52787,4.23925561 L133.52787,20.8207336 C134.334027,20.9491336 135.028037,21.0417767 135.611525,21.0994754 C136.195827,21.1571741 136.698862,21.1864298 137.123882,21.1864298 C139.585424,21.1864298 141.616257,20.3599564 143.218006,18.706197 C144.818943,17.0516249 145.620224,14.956592 145.620224,12.4194731 C145.620224,9.8197795 144.823819,7.7296226 143.233447,6.14981505 L143.233447,6.14981505 Z M146.288229,19.8447311 C145.112312,21.1246678 143.679596,22.0502855 141.990892,22.6215842 C140.300563,23.1928829 138.112075,23.4781259 135.421363,23.4781259 L128.799012,23.4781259 C129.263039,23.0669209 129.590541,22.6028931 129.780703,22.0852298 C129.970865,21.5683792 130.066758,20.7354045 130.066758,19.5854931 L130.066758,5.33228089 C130.066758,4.17261763 129.970865,3.33639234 129.780703,2.81954172 C129.590541,2.30350376 129.263039,1.84353922 128.799012,1.43883543 L136.471318,1.43883543 C138.537095,1.43883543 140.241239,1.63956201 141.587001,2.04182782 C142.93195,2.44490629 144.17613,3.0999088 145.31954,4.00927333 C146.601102,5.02509609 147.564915,6.2148277 148.210978,7.57928083 C148.856229,8.94373395 149.180479,10.4617795 149.180479,12.1334174 C149.180479,13.646587 148.938307,15.0467971 148.457214,16.338111 C147.974495,17.6286122 147.251229,18.7980273 146.288229,19.8447311 L146.288229,19.8447311 Z M168.423413,12.208182 C167.375084,13.0671617 166.60956,13.8944477 166.127654,14.6892275 C165.645747,15.4848198 165.4052,16.3104806 165.4052,17.1694603 C165.4052,18.4103894 165.823719,19.4481539 166.663195,20.2795033 C167.503484,21.1116653 168.551,21.5269336 169.80737,21.5269336 C170.809377,21.5269336 171.722805,21.2945134 172.546028,20.8280475 C173.369251,20.3623944 174.167281,19.6293767 174.937681,18.6330577 L168.423413,12.208182 Z M171.158821,5.11448849 C171.158821,4.50011889 170.945904,3.99383283 170.521696,3.59563031 C170.098302,3.19824044 169.552195,2.99913918 168.885003,2.99913918 C168.280385,2.99913918 167.776537,3.19824044 167.374271,3.59563031 C166.971193,3.99383283 166.770466,4.48955433 166.770466,5.08279482 C166.770466,5.51756696 166.944375,6.00028594 167.294631,6.53013908 C167.644074,7.06080489 168.206433,7.68655171 168.980084,8.40656688 C169.711476,7.91897196 170.25677,7.402934 170.61759,6.85682768 C170.97841,6.30990871 171.158821,5.72967075 171.158821,5.11448849 L171.158821,5.11448849 Z M179.941218,22.7085386 C178.861195,22.1957513 177.711284,21.3351463 176.493922,20.1283488 C175.45697,21.4074728 174.318436,22.3664095 173.08157,23.0067842 C171.843079,23.6455335 170.499755,23.9649082 169.050785,23.9649082 C166.976069,23.9649082 165.248357,23.3383487 163.867651,22.0827918 C162.486945,20.8272349 161.796998,19.2620552 161.796998,17.3872527 C161.796998,16.2007717 162.156193,15.0402958 162.875395,13.9066376 C163.594598,12.7737921 164.7632,11.5336757 166.382828,10.1879137 C165.526286,9.24685546 164.88835,8.38462511 164.471456,7.6012226 C164.052937,6.81863275 163.844897,6.08967834 163.844897,5.41110874 C163.844897,4.16286573 164.355246,3.11616197 165.375945,2.27018477 C166.396643,1.42339492 167.674142,1 169.208441,1 C170.509507,1 171.614722,1.4258329 172.524086,2.2774987 C173.434263,3.1291645 173.889352,4.16449105 173.889352,5.37941507 C173.889352,6.1953239 173.642304,7.01692135 173.151458,7.84745804 C172.658175,8.67799472 171.920281,9.52722254 170.936152,10.3943288 L178.702727,17.8537185 C179.495881,18.6070527 180.57184,19.471721 181.927354,20.4517868 C183.282868,21.4318526 184.812291,22.4403614 186.518061,23.4781259 L183.484407,23.4781259 C182.202033,23.4781259 181.02124,23.2221386 179.941218,22.7085386 L179.941218,22.7085386 Z M201.609936,20.8954982 C202.286068,20.9596982 202.87362,20.9913918 203.370966,20.9913918 C204.492435,20.9913918 205.550516,20.8402374 206.546022,20.5371159 C207.539903,20.2339944 208.519156,19.7667159 209.482156,19.1385311 L207.949483,23.4781259 L194.560939,23.4781259 C195.033093,23.0522931 195.369534,22.5720121 195.573511,22.0340323 C195.776676,21.4976779 195.87907,20.6703919 195.87907,19.5537995 L195.87907,5.31196444 C195.87907,4.20106067 195.776676,3.38108854 195.573511,2.85204805 C195.369534,2.32300756 195.033093,1.8516658 194.560939,1.43883543 L206.654106,1.43883543 L206.654106,4.90075938 C206.112875,4.47330117 205.519635,4.16286573 204.873571,3.97026574 C204.226696,3.7784784 203.479863,3.68177208 202.630635,3.68177208 C202.196675,3.68177208 201.708268,3.71671638 201.16785,3.78579233 C200.627432,3.85486827 200.017939,3.95970118 199.339369,4.09866574 L199.339369,10.313063 L204.751673,10.313063 L204.751673,13.5311895 C204.498123,13.228068 204.152744,13.0151516 203.717159,12.8900022 C203.281574,12.7640402 202.486794,12.7022782 201.330382,12.7022782 L199.339369,12.7022782 L199.339369,20.6086298 C200.176407,20.7362172 200.932179,20.8312982 201.609936,20.8954982 L201.609936,20.8954982 Z M211.656829,23.4781259 C212.127359,23.0522931 212.463799,22.5720121 212.666964,22.0340323 C212.870128,21.4976779 212.972523,20.6703919 212.972523,19.5537995 L212.972523,5.30546317 C212.972523,4.19618472 212.870128,3.37702525 212.666964,2.84961007 C212.463799,2.32056958 212.127359,1.85085314 211.656829,1.43883543 L217.750953,1.43883543 C217.269047,1.85085314 216.929356,2.32056958 216.73188,2.84961007 C216.534404,3.37702525 216.433634,4.19618472 216.433634,5.30546317 L216.433634,20.6086298 C217.288551,20.7362172 218.054075,20.8312982 218.728581,20.8954982 C219.4039,20.9596982 219.989014,20.9913918 220.484736,20.9913918 C221.591576,20.9913918 222.646406,20.8402374 223.649227,20.5371159 C224.651234,20.2339944 225.627237,19.7667159 226.576421,19.1385311 L225.045373,23.4781259 L211.656829,23.4781259 Z M228.464226,23.4781259 C228.935568,23.0522931 229.272009,22.5720121 229.475173,22.0340323 C229.678338,21.4976779 229.780733,20.6703919 229.780733,19.5537995 L229.780733,5.30546317 C229.780733,4.19618472 229.678338,3.37702525 229.475173,2.84961007 C229.272009,2.32056958 228.935568,1.85085314 228.464226,1.43883543 L234.559976,1.43883543 C234.078069,1.85085314 233.738378,2.32056958 233.54009,2.84961007 C233.341801,3.37702525 233.243469,4.19618472 233.243469,5.30546317 L233.243469,20.6086298 C234.097573,20.7362172 234.861472,20.8312982 235.536791,20.8954982 C236.21211,20.9596982 236.797224,20.9913918 237.292945,20.9913918 C238.401411,20.9913918 239.455429,20.8402374 240.458249,20.5371159 C241.459444,20.2339944 242.436259,19.7667159 243.385444,19.1385311 L241.854396,23.4781259 L228.464226,23.4781259 Z M250.446631,22.0421589 C250.644107,22.5760753 250.984611,23.0555437 251.465704,23.4781259 L245.370768,23.4781259 C245.852674,23.0555437 246.192365,22.5760753 246.389841,22.0421589 C246.58813,21.5082425 246.687274,20.6858324 246.687274,19.5749286 L246.687274,5.31033912 C246.687274,4.19943535 246.58813,3.37946322 246.389841,2.85123539 C246.192365,2.32300756 245.852674,1.8516658 245.370768,1.43883543 L251.465704,1.43883543 C250.984611,1.8516658 250.644107,2.32300756 250.446631,2.85123539 C250.248342,3.37946322 250.149198,4.19943535 250.149198,5.31033912 L250.149198,19.5749286 C250.149198,20.6858324 250.248342,21.5082425 250.446631,22.0421589 L250.446631,22.0421589 Z M267.397868,22.0892931 C265.664468,23.4057994 263.496296,24.0640525 260.894165,24.0640525 C260.058752,24.0640525 259.160765,23.9730348 258.197765,23.79425 C257.235578,23.6138399 256.188874,23.3456627 255.057654,22.9856551 L254.010137,18.99144 C255.288449,19.8479817 256.53019,20.4842931 257.736175,20.9019994 C258.940534,21.3205184 260.134329,21.5269336 261.318372,21.5269336 C262.828291,21.5269336 264.044028,21.2034956 264.963144,20.5525564 C265.882261,19.9024298 266.343038,19.0597033 266.343038,18.0243767 C266.343038,17.7285691 266.295091,17.4327616 266.200823,17.1361413 C266.105742,16.8403337 265.968403,16.5599667 265.788805,16.2958527 C265.387352,15.693673 264.039965,14.83063 261.745831,13.708349 C261.163967,13.4352959 260.71538,13.2183161 260.398443,13.0598478 C258.253026,11.979825 256.781302,10.9851314 255.983271,10.0757668 C255.185241,9.1664023 254.787038,8.08800486 254.787038,6.8389492 C254.787038,5.05110115 255.516805,3.63219993 256.97634,2.57899489 C258.435874,1.52660252 260.435826,1 262.975382,1 C263.70515,1 264.510494,1.04794683 265.387352,1.14302784 C266.265023,1.23973417 267.217458,1.38763796 268.243846,1.58836454 L268.243846,5.29083532 C267.334481,4.60413914 266.420241,4.0897265 265.500312,3.75084802 C264.581195,3.41278221 263.623884,3.24293665 262.630003,3.24293665 C261.371195,3.24293665 260.360248,3.51273917 259.593912,4.05234422 C258.827575,4.59113661 258.444,5.29408596 258.444,6.16119226 C258.444,6.93403021 258.743871,7.61585045 259.346051,8.20746562 C259.947418,8.80070611 261.298869,9.59386052 263.398777,10.5877415 C263.514175,10.6405643 263.693772,10.7250807 263.938382,10.8412909 C265.714853,11.6547617 267.042737,12.4048452 267.92122,13.0923541 C268.577035,13.5994528 269.087385,14.2178857 269.452268,14.9468401 C269.817152,15.6766072 270,16.4535084 270,17.2775438 C270,19.1694121 269.132081,20.7735994 267.397868,22.0892931 L267.397868,22.0892931 Z" id="Logo---Blue"></path>
            </g>
        </g>
    </g>
</svg>