<?xml version="1.0" encoding="UTF-8"?>
<svg width="25px" height="25px" viewBox="0 0 25 25" version="1.1" xmlns="http://www.w3.org/2000/svg" xmlns:xlink="http://www.w3.org/1999/xlink">
    <!-- Generator: Sketch 47.1 (45422) - http://www.bohemiancoding.com/sketch -->
    <title>Shape</title>
    <desc>Created with Sketch.</desc>
    <defs></defs>
    <g id="Page-1" stroke="none" stroke-width="1" fill="none" fill-rule="evenodd">
        <g id="magnifying-glass" fill-rule="nonzero" fill="#000000">
            <path d="M24.7837658,23.7250554 L18.7070304,17.6496674 C20.3371036,15.7760532 21.3240186,13.3314856 21.3240186,10.6596452 C21.3240186,4.77827051 16.5391439,0 10.6620093,0 C4.77933023,0 0,4.78381375 0,10.6596452 C0,16.5354767 4.7848747,21.3192905 10.6620093,21.3192905 C13.3344422,21.3192905 15.779552,20.3325942 17.6535817,18.7028825 L23.7303171,24.7782705 C23.8744733,24.9223947 24.0685296,25 24.2570415,25 C24.4455533,25 24.6396097,24.9279379 24.7837658,24.7782705 C25.0720781,24.4900222 25.0720781,24.0133038 24.7837658,23.7250554 Z M1.49146152,10.6596452 C1.49146152,5.60421286 5.60545576,1.49667406 10.6564648,1.49667406 C15.7130184,1.49667406 19.8214682,5.6097561 19.8214682,10.6596452 C19.8214682,15.7095344 15.7130184,19.8281596 10.6564648,19.8281596 C5.60545576,19.8281596 1.49146152,15.7150776 1.49146152,10.6596452 Z" id="Shape"></path>
        </g>
    </g>
</svg>